<svg id="e4riGCs9zgY1" xmlns="http://www.w3.org/2000/svg" xmlns:xlink="http://www.w3.org/1999/xlink" viewBox="0 0 400 340" shape-rendering="geometricPrecision" text-rendering="geometricPrecision"><path d="M362,197c-34.24,18.38-135,76.52-166.72,94.87-5.981331,3.477305-13.368669,3.477305-19.35,0L55.22,221.34c-4.8-2.8-3.26-8.11,1.58-10.85l168.5-97.9c1.764803-1.000203,3.925197-1.000203,5.69,0l131.17,74.59c1.765633,1.020719,2.83973,2.917858,2.806505,4.957031s-1.168556,3.900312-2.966505,4.862969Z" transform="translate(0 28)" fill="#222231"/><g id="e4riGCs9zgY3" transform="translate(-.188941 11.755378)"><path d="M82.87,89.8c-1.495463.868144-2.411296,2.470851-2.4,4.2v118.33c-.18,2.42,2.56,4.65,4.77,3.38l48.46-27.59c1.95-1.12,90.66-51,90.66-53.26l4.81-124c.036577-.842397-.386775-1.638317-1.10574-2.078839s-1.620335-.456281-2.35426-.041161C204.08,21,92.69,84.09,82.87,89.8Z" fill="#00275e"/><path d="M107,79.31l-22.15,13c-.428562.252176-.691204.712751-.69,1.21v118.24c.023698.330119.209198.627129.495444.793272s.636154.179894.934556.036728L224.48,131.8c-.014846,2.011499-.983373,3.896601-2.61,5.08-2.66,1.7-136.63,78.84-136.63,78.84s-3.7,1.67-4.77-2.74v-118.98c-.004975-1.561121.738761-3.03,2-3.95c2.14-1.55,140.07-81.9,140.07-81.9s5-1.84,6.69,1.18L121.15,71.14" fill="#106b80"/><polygon points="184.36,61.68 184.36,65.06 212.59,48.65 212.59,45.36 184.36,61.68" fill="#f7931e"/><polygon points="181.55,63.3 101.97,109.31 101.97,112.94 181.55,66.69 181.55,63.3" fill="#00a99d"/><polygon points="114.42,113.09 101.97,120.29 101.97,123.92 114.42,116.69 114.42,113.09" fill="#8cc63f"/><polygon points="117.23,111.47 117.23,115.05 161.79,89.16 161.79,85.71 117.23,111.47" fill="#f7931e"/><polygon points="164.6,84.09 164.6,87.53 193.74,70.59 193.74,67.24 164.6,84.09" fill="#f15a24"/><polygon points="196.55,65.61 196.55,68.96 212.59,59.64 212.59,56.34 196.55,65.61" fill="#8cc63f"/><polygon points="182.45,84.67 102.87,130.67 102.87,134.3 182.45,88.05 182.45,84.67" fill="#00a99d"/><polygon points="188.87,101.62 188.87,105 217.1,88.59 217.1,85.3 188.87,101.62" fill="#f7931e"/><polygon points="186.06,103.25 106.48,149.25 106.48,152.88 186.06,106.63 186.06,103.25" fill="#00a99d"/><polygon points="118.93,153.04 106.48,160.24 106.48,163.86 118.93,156.63 118.93,153.04" fill="#8cc63f"/><polygon points="121.74,151.41 121.74,155 166.3,129.1 166.3,125.65 121.74,151.41" fill="#f7931e"/><polygon points="169.11,124.03 169.11,127.47 198.25,110.53 198.25,107.18 169.11,124.03" fill="#f15a24"/><polygon points="201.06,105.56 201.06,108.9 217.1,99.58 217.1,96.29 201.06,105.56" fill="#8cc63f"/><polygon points="186.96,124.61 107.38,170.62 107.38,174.24 186.96,128 186.96,124.61" fill="#00a99d"/></g><path d="M318.37,169.47c-.74-1.58-4-2.78-7.91-2.78s-7.34,1.26-8,2.9c-4.6,6.44-9.13,16.93-3.47,24c2.782841,3.226097,6.849869,5.056442,11.11,5h.68c4.260131.056442,8.327159-1.773903,11.11-5c5.74-7.11,1.11-17.69-3.52-24.12Z" transform="translate(0 28)" fill="#106b80"/><ellipse rx="8.07" ry="3.46" transform="translate(310.46 198.15)" opacity="0.5"/><g id="e4riGCs9zgY22" transform="translate(.000001 28)"><path d="M319.88,140.79c-4.996229,8.446573-8.069136,17.89064-9,27.66-.001021-11.811051-1.085566-23.597105-3.24-35.21-.08-.41-.71-.24-.63.17c2.410597,12.985861,3.476228,26.185614,3.18,39.39-.002153.101169.045207.197021.126872.256775s.187354.07589.283128.043225c0,.1,0,.19,0,.29.027777.157749.164824.272772.325.272772s.297223-.115023.325-.272772c.226796-11.365501,3.381786-22.480297,9.16-32.27.031691-.137406-.027428-.279766-.147134-.3543s-.273544-.06477-.382866.0243Z" fill="#fe6162"/><path d="M314.78,151.53c0,0,5-16.06,15.71-22c0,0-2.17,3.19-1.16,5.79s2.61,7.24-2.46,9.85-8,0-7.53,5.07s2.44,7.53-.81,10-6,4.61-7.1,9.91c0,0,1.23-13.28,3.35-18.62Z" fill="#fe6162"/><path d="M310,149.84c0,0-2.08-24.67-6.42-30.91.331589,2.384039-.095225,4.811979-1.22,6.94-1.88,3.57-3.9,4.81-2.81,9.46s5.49,3.72,5.07,8.37-4.1,3.77-2.26,9.64s8.09,9.73,8.09,9.73" fill="#fe6162"/></g><path d="M213.68,218.74c0,0,.18,3.06-.77,3.91s-6-1.52-7.41-.68s5.12,7,7.41,7.31s4.4-2.91,4.4-2.91v4.63l2.59,1.47l1.9-1.13-.56-12.59Z" transform="translate(0 28)" fill="#060638"/><path d="M217.14,203.24c3.068303-2.341346,6.993035-3.255175,10.78-2.51c4.24.93,7.9,3.59,12.22,4.25.68.1,3.41-.07,3.82.32c12,11.36-21.56,10.15-21.56,10.15-3.26-2.67-6.32-5.29-9.56-8c.98-2.18,2.63-3.04,4.3-4.21Z" transform="translate(0 28)" fill="#f8997c"/><path d="M232.94,219.72L234.13,254c0,1.3-2,1.3-2,0l-1.19-34.29c-.07-1.29,1.96-1.29,2,.01Z" transform="translate(0 28)" fill="#844040"/><path d="M207.77,238.06q9.17-9,17.52-18.73c.85-1,2.27.45,1.43,1.43q-8.34,9.75-17.52,18.73c-.93.91-2.36-.49-1.43-1.43Z" transform="translate(0 28)" fill="#844040"/><path d="M239.95,216.54q7.12,13.44,13.41,27.29c.53,1.18-1.21,2.2-1.74,1q-6.3-13.83-13.42-27.27c-.61-1.15,1.14-2.17,1.75-1.02Z" transform="translate(0 28)" fill="#844040"/><path d="M213.4,206.45c2.022396,2.768025,4.867913,4.826038,8.13,5.88c4.59,1.37,11.26.73,13.67-4c4.39-8.6.27-19.36,4.9-27.72c1.091161-2.146697,3.043552-3.728243,5.37-4.35c3-.65,5.06,1.58,6.15,4.19c2,4.69,1.88,10.53,1.79,15.53-.004973,4.03622-.302419,8.066775-.89,12.06s-2.81,16.76-24.69,12.26c-3.783091-.675058-7.420369-2.001395-10.75-3.92-1.700495-.963515-3.192695-2.255169-4.39-3.8-1.33-1.92-.44-4.2.71-6.13Z" transform="translate(0 28)" fill="#106b80"/><path d="M229.31,204.63c-.887911-6.011558-1.302518-12.083545-1.24-18.16-.005801-.359394.10663-.710741.32-1c0-.6,0-1.2,0-1.81-4-.14-10.46.37-15.09,3.54-6.07,4.16-3.21,30.16-.78,34.44c3.38,1.45,6.31,1.53,9-.82l2.73-15.59c1.677237.890004,3.443677,1.600603,5.27,2.12q-.1-1.35-.21-2.72Z" transform="translate(0 28)" fill="#124577"/><path d="M198.26,222.53c0,0,.18,3.06-.77,3.91s-6-1.52-7.41-.68s5.12,7,7.41,7.31s4.4-2.91,4.4-2.91v4.61l2.59,1.47l1.9-1.13-.56-12.59Z" transform="translate(0 28)" fill="#060638"/><path d="M207,224.78c-2.72,2.34-5.65,2.27-9,.82-2.43-4.27-5.29-30.28.78-34.44c6.52-4.46,16.71-3.67,18.42-3.18l25,4.09c1.92,3.26-3.16,20.34-14.25,20.81s-18.17-3.69-18.17-3.69Z" transform="translate(0 28)" fill="#124577"/><path d="M216.71,153.42c1.188488.52369,2.172187,1.423072,2.8,2.56v.09c1.76,1.44,2,4.06,3.9,5.36c0,.05,1.76,1.28,1.77,1.33s-.17-2.4-.16-2.39v0c.61,1.66,1.2,3.32,1.72,5-.083562.053149-.174555.09359-.27.12l.2.1.17.1c.045095.171001.167007.311384.33.38.140151.501625-.025397,1.038895-.423566,1.374649s-.95568.408197-1.426434.185351l-5.65-2.76c-.751285-.159169-1.489922-.373073-2.21-.64c0-.59-.09-1.18-.15-1.77-.896822-1.399818-1.039242-3.153835-.38-4.68-.028716-.037651-.062349-.071284-.1-.1v-.06c-.946265-.659957-1.587647-1.672476-1.78-2.81-.05-.81.76-1.81,1.66-1.39Z" transform="translate(0 28)" fill="#f7931e"/><path d="M223.89,158.75c0,0-6.44,4-7.11,7.33c0,0,4.52,9.82,4.22,10.21-5.11,6.66,10.21-4.22,10.21-4.22s-3.1-9.32-7.32-13.32Z" transform="translate(0 28)" fill="#106b80"/><path d="M209.24,161.2c-.53,4.45,5.14,10.64,7.53,11.84c3.28,1.64,4.55-12,19-11.93.93,0,5.6-2,8.06,4.15s0,23.75-1.64,26.82c-1.45,2.71-11.05,9.21-24.77,2.25l-.2-6.35c0,0-8.1-.17-12.38-6.13-4-5.55-6.37-13.89-6-18c3.16-1.4,7.21-3.7,10.4-2.65Z" transform="translate(0 28)" fill="#106b80"/><path d="M223.89,158.75c0,0-6.44,4-7.11,7.33c0,0,4.52,9.82,4.22,10.21-5.11,6.66,10.21-4.22,10.21-4.22s-3.1-9.32-7.32-13.32Z" transform="translate(0 28)" fill="#8787d1"/><polyline points="215.23,141.88 198.14,145.66 201.02,169.63 217.45,164.31" transform="translate(0 28)" fill="#124577"/><path d="M199,160.22c.041948.04914.09285.089862.15.12q-.06,2-.11,4c0,.68,1,.59,1.05-.09c0-.06,0-.12,0-.18.29894.06585.59859-.107861.69-.4v-.13c.169552.075037.366936.047945.51-.07.146988-.023156.279454-.101919.37-.22.109694.138119.273802.221997.45.23v.48c0,.59,1,.65,1,.06v-.43c.16.45,1,.44,1-.09v-.58c.065382-.017747.126573-.048342.18-.09v.1c.060919.217584.253085.372622.478631.386154s.43487-.117415.521369-.326154l.07-.27c.120023.065765.261758.079457.392151.037883s.238044-.134781.297849-.257883c.713728-1.39743,1.280112-2.865334,1.69-4.38.390189-1.095575.011472-2.31724-.93-3-.09187-.086292-.213994-.132987-.34-.13v0c.07-.72.15-1.45.23-2.17.105781-.508172.179261-1.022536.22-1.54.114533-.37525.093292-.778846-.06-1.14-.12-.52-.41-1-1-.86-.94.17-1.32,1.57-1.55,2.34-.147262.786991-.250754,1.581545-.31,2.38-.121438-.130735-.267588-.236099-.43-.31-.558981-.190017-1.177318-.019578-1.56.43l-.08.1c-.115162-.127585-.250248-.235654-.4-.32-.482429-.304317-1.10237-.280474-1.56.06-.275777.215798-.469775.51914-.55.86-.373692-.139661-.789699-.109497-1.139335.082611s-.598168.527075-.680665.917389c-.54,1.49.4,3.3,1.4,4.4Zm4.33-5.38h-.33c-.017798-.046093-.041315-.089769-.07-.13.091819-.043293.198181-.043293.29,0Z" transform="translate(0 28)" fill="#f7931e"/><path d="M228.11,144.88c0,.15-.89,9.15,1.12,11.14s7.37,1.16,8.7-1s3-5,1.54-8.38-11.12-3.98-11.36-1.76Z" transform="translate(0 28)" fill="#f7931e"/><path d="M231,150.74c-.159681-.332572-.10023-.728915.15-1c.616579-.762919,1.472916-1.295046,2.43-1.51.898966-.212802,1.81476.28164,2.13,1.15.62,2-2.7,2.64-4.05,2.82-.238695,0-.467613-.094821-.636396-.263604s-.263604-.397701-.263604-.636396c.004073-.210787.09017-.41168.24-.56Z" transform="translate(0 28)" fill="#ffe8e6"/><path d="M209.24,161.2c-.53,4.45,5.14,10.64,7.53,11.84c3.28,1.64,4.55-12,19-11.93.93,0,5.6-2,8.06,4.15s0,23.75-1.64,26.82c-1.45,2.71-11.05,9.21-24.77,2.25l-.2-6.35c0,0-8.1-.17-12.38-6.13-4-5.55-6.37-13.89-6-18c3.16-1.4,7.21-3.7,10.4-2.65Z" transform="translate(0 28)" fill="#8787d1"/><path d="M210.37,186.42c7.692053,2.764082,16.277083-.085206,20.79-6.9.29-.44,1,0,.71.41-4.701439,7.130462-13.66027,10.134621-21.71,7.28-.5-.21-.29-.97.21-.79Z" transform="translate(0 28)" fill="#fff"/><path d="M218.46,171.51c.733076-1.711646,1.82025-3.248684,3.19-4.51c1.57-1.43,3.51-2.34,5.15-3.68.33-.27.8.2.47.47-1.55,1.26-3.37,2.14-4.88,3.45-1.451461,1.263061-2.596963,2.839407-3.35,4.61-.17.39-.75.05-.58-.34Z" transform="translate(0 28)" fill="#fff"/><path d="M227.91,146.15l2.87,1.51c0,0-2.22,8.44-2.89,10.66s2,5.33,10.66,5.55s8.22-12.88,6.22-17.76-8-7.11-12.88-5.77c-2.696874.515385-4.473605,3.109054-3.98,5.81Z" transform="translate(0 28)" fill="#b24d16"/><path d="M212.43,208.41c.178195-.43966.569728-.75697,1.036764-.840224s.944097.079219,1.263236.430224c1.844465,2.01857,4.190694,3.512566,6.8,4.33c4.59,1.37,11.26.73,13.67-4c4.37-8.57.3-19.28,4.85-27.63.782962-1.505184,1.966485-2.764841,3.42-3.64c4.11-2.37,6.84.22,8.16,3.38c2,4.69,1.88,10.53,1.79,15.53-.004973,4.03622-.302419,8.066775-.89,12.06s-2.81,16.76-24.69,12.26c-3.783091-.675058-7.420369-2.001395-10.75-3.92-1.700495-.963515-3.192695-2.255169-4.39-3.8-.801095-1.24741-.90313-2.819503-.27-4.16Z" transform="translate(0 28)" fill="#106b80"/>
<script><![CDATA[
!function(t,n){"object"==typeof exports&&"undefined"!=typeof module?module.exports=n():"function"==typeof define&&define.amd?define(n):((t="undefined"!=typeof globalThis?globalThis:t||self).__SVGATOR_PLAYER__=t.__SVGATOR_PLAYER__||{},t.__SVGATOR_PLAYER__["5c7f360c"]=n())}(this,(function(){"use strict";function t(t,n){var e=Object.keys(t);if(Object.getOwnPropertySymbols){var r=Object.getOwnPropertySymbols(t);n&&(r=r.filter((function(n){return Object.getOwnPropertyDescriptor(t,n).enumerable}))),e.push.apply(e,r)}return e}function n(n){for(var e=1;e<arguments.length;e++){var r=null!=arguments[e]?arguments[e]:{};e%2?t(Object(r),!0).forEach((function(t){o(n,t,r[t])})):Object.getOwnPropertyDescriptors?Object.defineProperties(n,Object.getOwnPropertyDescriptors(r)):t(Object(r)).forEach((function(t){Object.defineProperty(n,t,Object.getOwnPropertyDescriptor(r,t))}))}return n}function e(t){return(e="function"==typeof Symbol&&"symbol"==typeof Symbol.iterator?function(t){return typeof t}:function(t){return t&&"function"==typeof Symbol&&t.constructor===Symbol&&t!==Symbol.prototype?"symbol":typeof t})(t)}function r(t,n){if(!(t instanceof n))throw new TypeError("Cannot call a class as a function")}function i(t,n){for(var e=0;e<n.length;e++){var r=n[e];r.enumerable=r.enumerable||!1,r.configurable=!0,"value"in r&&(r.writable=!0),Object.defineProperty(t,r.key,r)}}function u(t,n,e){return n&&i(t.prototype,n),e&&i(t,e),t}function o(t,n,e){return n in t?Object.defineProperty(t,n,{value:e,enumerable:!0,configurable:!0,writable:!0}):t[n]=e,t}function a(t){return(a=Object.setPrototypeOf?Object.getPrototypeOf:function(t){return t.__proto__||Object.getPrototypeOf(t)})(t)}function l(t,n){return(l=Object.setPrototypeOf||function(t,n){return t.__proto__=n,t})(t,n)}function s(){if("undefined"==typeof Reflect||!Reflect.construct)return!1;if(Reflect.construct.sham)return!1;if("function"==typeof Proxy)return!0;try{return Boolean.prototype.valueOf.call(Reflect.construct(Boolean,[],(function(){}))),!0}catch(t){return!1}}function f(t,n,e){return(f=s()?Reflect.construct:function(t,n,e){var r=[null];r.push.apply(r,n);var i=new(Function.bind.apply(t,r));return e&&l(i,e.prototype),i}).apply(null,arguments)}function c(t,n){if(n&&("object"==typeof n||"function"==typeof n))return n;if(void 0!==n)throw new TypeError("Derived constructors may only return object or undefined");return function(t){if(void 0===t)throw new ReferenceError("this hasn't been initialised - super() hasn't been called");return t}(t)}function h(t,n,e){return(h="undefined"!=typeof Reflect&&Reflect.get?Reflect.get:function(t,n,e){var r=function(t,n){for(;!Object.prototype.hasOwnProperty.call(t,n)&&null!==(t=a(t)););return t}(t,n);if(r){var i=Object.getOwnPropertyDescriptor(r,n);return i.get?i.get.call(e):i.value}})(t,n,e||t)}function v(t){return function(t){if(Array.isArray(t))return y(t)}(t)||function(t){if("undefined"!=typeof Symbol&&null!=t[Symbol.iterator]||null!=t["@@iterator"])return Array.from(t)}(t)||function(t,n){if(!t)return;if("string"==typeof t)return y(t,n);var e=Object.prototype.toString.call(t).slice(8,-1);"Object"===e&&t.constructor&&(e=t.constructor.name);if("Map"===e||"Set"===e)return Array.from(t);if("Arguments"===e||/^(?:Ui|I)nt(?:8|16|32)(?:Clamped)?Array$/.test(e))return y(t,n)}(t)||function(){throw new TypeError("Invalid attempt to spread non-iterable instance.\nIn order to be iterable, non-array objects must have a [Symbol.iterator]() method.")}()}function y(t,n){(null==n||n>t.length)&&(n=t.length);for(var e=0,r=new Array(n);e<n;e++)r[e]=t[e];return r}Number.isInteger||(Number.isInteger=function(t){return"number"==typeof t&&isFinite(t)&&Math.floor(t)===t}),Number.EPSILON||(Number.EPSILON=2220446049250313e-31);var g=d(Math.pow(10,-6));function d(t){var n=arguments.length>1&&void 0!==arguments[1]?arguments[1]:6;if(Number.isInteger(t))return t;var e=Math.pow(10,n);return Math.round((+t+Number.EPSILON)*e)/e}function p(t,n){var e=arguments.length>2&&void 0!==arguments[2]?arguments[2]:g;return Math.abs(t-n)<e}var m=Math.PI/180;function b(t){return t}function w(t,n,e){var r=1-e;return 3*e*r*(t*r+n*e)+e*e*e}function x(){var t=arguments.length>0&&void 0!==arguments[0]?arguments[0]:0,n=arguments.length>1&&void 0!==arguments[1]?arguments[1]:0,e=arguments.length>2&&void 0!==arguments[2]?arguments[2]:1,r=arguments.length>3&&void 0!==arguments[3]?arguments[3]:1;return t<0||t>1||e<0||e>1?null:p(t,n)&&p(e,r)?b:function(i){if(i<=0)return t>0?i*n/t:0===n&&e>0?i*r/e:0;if(i>=1)return e<1?1+(i-1)*(r-1)/(e-1):1===e&&t<1?1+(i-1)*(n-1)/(t-1):1;for(var u,o=0,a=1;o<a;){var l=w(t,e,u=(o+a)/2);if(p(i,l))break;l<i?o=u:a=u}return w(n,r,u)}}function A(){return 1}function k(t){return 1===t?1:0}function _(){var t=arguments.length>0&&void 0!==arguments[0]?arguments[0]:1,n=arguments.length>1&&void 0!==arguments[1]?arguments[1]:0;if(1===t){if(0===n)return k;if(1===n)return A}var e=1/t;return function(t){return t>=1?1:(t+=n*e)-t%e}}var S=Math.sin,O=Math.cos,j=Math.acos,M=Math.asin,P=Math.tan,E=Math.atan2,I=Math.PI/180,R=180/Math.PI,F=Math.sqrt,N=function(){function t(){var n=arguments.length>0&&void 0!==arguments[0]?arguments[0]:1,e=arguments.length>1&&void 0!==arguments[1]?arguments[1]:0,i=arguments.length>2&&void 0!==arguments[2]?arguments[2]:0,u=arguments.length>3&&void 0!==arguments[3]?arguments[3]:1,o=arguments.length>4&&void 0!==arguments[4]?arguments[4]:0,a=arguments.length>5&&void 0!==arguments[5]?arguments[5]:0;r(this,t),this.m=[n,e,i,u,o,a],this.i=null,this.w=null,this.s=null}return u(t,[{key:"determinant",get:function(){var t=this.m;return t[0]*t[3]-t[1]*t[2]}},{key:"isIdentity",get:function(){if(null===this.i){var t=this.m;this.i=1===t[0]&&0===t[1]&&0===t[2]&&1===t[3]&&0===t[4]&&0===t[5]}return this.i}},{key:"point",value:function(t,n){var e=this.m;return{x:e[0]*t+e[2]*n+e[4],y:e[1]*t+e[3]*n+e[5]}}},{key:"translateSelf",value:function(){var t=arguments.length>0&&void 0!==arguments[0]?arguments[0]:0,n=arguments.length>1&&void 0!==arguments[1]?arguments[1]:0;if(!t&&!n)return this;var e=this.m;return e[4]+=e[0]*t+e[2]*n,e[5]+=e[1]*t+e[3]*n,this.w=this.s=this.i=null,this}},{key:"rotateSelf",value:function(){var t=arguments.length>0&&void 0!==arguments[0]?arguments[0]:0;if(t%=360){var n=S(t*=I),e=O(t),r=this.m,i=r[0],u=r[1];r[0]=i*e+r[2]*n,r[1]=u*e+r[3]*n,r[2]=r[2]*e-i*n,r[3]=r[3]*e-u*n,this.w=this.s=this.i=null}return this}},{key:"scaleSelf",value:function(){var t=arguments.length>0&&void 0!==arguments[0]?arguments[0]:1,n=arguments.length>1&&void 0!==arguments[1]?arguments[1]:1;if(1!==t||1!==n){var e=this.m;e[0]*=t,e[1]*=t,e[2]*=n,e[3]*=n,this.w=this.s=this.i=null}return this}},{key:"skewSelf",value:function(t,n){if(n%=360,(t%=360)||n){var e=this.m,r=e[0],i=e[1],u=e[2],o=e[3];t&&(t=P(t*I),e[2]+=r*t,e[3]+=i*t),n&&(n=P(n*I),e[0]+=u*n,e[1]+=o*n),this.w=this.s=this.i=null}return this}},{key:"resetSelf",value:function(){var t=arguments.length>0&&void 0!==arguments[0]?arguments[0]:1,n=arguments.length>1&&void 0!==arguments[1]?arguments[1]:0,e=arguments.length>2&&void 0!==arguments[2]?arguments[2]:0,r=arguments.length>3&&void 0!==arguments[3]?arguments[3]:1,i=arguments.length>4&&void 0!==arguments[4]?arguments[4]:0,u=arguments.length>5&&void 0!==arguments[5]?arguments[5]:0,o=this.m;return o[0]=t,o[1]=n,o[2]=e,o[3]=r,o[4]=i,o[5]=u,this.w=this.s=this.i=null,this}},{key:"recomposeSelf",value:function(){var t=arguments.length>0&&void 0!==arguments[0]?arguments[0]:null,n=arguments.length>1&&void 0!==arguments[1]?arguments[1]:null,e=arguments.length>2&&void 0!==arguments[2]?arguments[2]:null,r=arguments.length>3&&void 0!==arguments[3]?arguments[3]:null,i=arguments.length>4&&void 0!==arguments[4]?arguments[4]:null;return this.isIdentity||this.resetSelf(),t&&(t.x||t.y)&&this.translateSelf(t.x,t.y),n&&this.rotateSelf(n),e&&(e.x&&this.skewSelf(e.x,0),e.y&&this.skewSelf(0,e.y)),!r||1===r.x&&1===r.y||this.scaleSelf(r.x,r.y),i&&(i.x||i.y)&&this.translateSelf(i.x,i.y),this}},{key:"decompose",value:function(){var t=arguments.length>0&&void 0!==arguments[0]?arguments[0]:0,n=arguments.length>1&&void 0!==arguments[1]?arguments[1]:0,e=this.m,r=e[0]*e[0]+e[1]*e[1],i=[[e[0],e[1]],[e[2],e[3]]],u=F(r);if(0===u)return{origin:{x:d(e[4]),y:d(e[5])},translate:{x:d(t),y:d(n)},scale:{x:0,y:0},skew:{x:0,y:0},rotate:0};i[0][0]/=u,i[0][1]/=u;var o=e[0]*e[3]-e[1]*e[2]<0;o&&(u=-u);var a=i[0][0]*i[1][0]+i[0][1]*i[1][1];i[1][0]-=i[0][0]*a,i[1][1]-=i[0][1]*a;var l=F(i[1][0]*i[1][0]+i[1][1]*i[1][1]);if(0===l)return{origin:{x:d(e[4]),y:d(e[5])},translate:{x:d(t),y:d(n)},scale:{x:d(u),y:0},skew:{x:0,y:0},rotate:0};i[1][0]/=l,i[1][1]/=l,a/=l;var s=0;return i[1][1]<0?(s=j(i[1][1])*R,i[0][1]<0&&(s=360-s)):s=M(i[0][1])*R,o&&(s=-s),a=E(a,F(i[0][0]*i[0][0]+i[0][1]*i[0][1]))*R,o&&(a=-a),{origin:{x:d(e[4]),y:d(e[5])},translate:{x:d(t),y:d(n)},scale:{x:d(u),y:d(l)},skew:{x:d(a),y:0},rotate:d(s)}}},{key:"clone",value:function(){var t=this.m;return new this.constructor(t[0],t[1],t[2],t[3],t[4],t[5])}},{key:"toString",value:function(){var t=arguments.length>0&&void 0!==arguments[0]?arguments[0]:" ";if(null===this.s){var n=this.m.map((function(t){return d(t)}));1===n[0]&&0===n[1]&&0===n[2]&&1===n[3]?this.s="translate("+n[4]+t+n[5]+")":this.s="matrix("+n.join(t)+")"}return this.s}}],[{key:"create",value:function(t){return t?Array.isArray(t)?f(this,v(t)):t instanceof this?t.clone():(new this).recomposeSelf(t.origin,t.rotate,t.skew,t.scale,t.translate):new this}}]),t}();function T(t,n,e){return t>=.5?e:n}function q(t,n,e){return 0===t||n===e?n:t*(e-n)+n}function B(t,n,e){var r=q(t,n,e);return r<=0?0:r}function L(t,n,e){var r=q(t,n,e);return r<=0?0:r>=1?1:r}function C(t,n,e){return 0===t?n:1===t?e:{x:q(t,n.x,e.x),y:q(t,n.y,e.y)}}function D(t,n,e){var r=function(t,n,e){return Math.round(q(t,n,e))}(t,n,e);return r<=0?0:r>=255?255:r}function z(t,n,e){return 0===t?n:1===t?e:{r:D(t,n.r,e.r),g:D(t,n.g,e.g),b:D(t,n.b,e.b),a:q(t,null==n.a?1:n.a,null==e.a?1:e.a)}}function V(t,n){for(var e=[],r=0;r<t;r++)e.push(n);return e}function G(t,n){if(--n<=0)return t;var e=(t=Object.assign([],t)).length;do{for(var r=0;r<e;r++)t.push(t[r])}while(--n>0);return t}var Y,$=function(){function t(n){r(this,t),this.list=n,this.length=n.length}return u(t,[{key:"setAttribute",value:function(t,n){for(var e=this.list,r=0;r<this.length;r++)e[r].setAttribute(t,n)}},{key:"removeAttribute",value:function(t){for(var n=this.list,e=0;e<this.length;e++)n[e].removeAttribute(t)}},{key:"style",value:function(t,n){for(var e=this.list,r=0;r<this.length;r++)e[r].style[t]=n}}]),t}(),U=/-./g,Q=function(t,n){return n.toUpperCase()};function H(t){return"function"==typeof t?t:T}function J(t){return t?"function"==typeof t?t:Array.isArray(t)?function(t){var n=arguments.length>1&&void 0!==arguments[1]?arguments[1]:b;if(!Array.isArray(t))return n;switch(t.length){case 1:return _(t[0])||n;case 2:return _(t[0],t[1])||n;case 4:return x(t[0],t[1],t[2],t[3])||n}return n}(t,null):function(t,n){var e=arguments.length>2&&void 0!==arguments[2]?arguments[2]:b;switch(t){case"linear":return b;case"steps":return _(n.steps||1,n.jump||0)||e;case"bezier":case"cubic-bezier":return x(n.x1||0,n.y1||0,n.x2||0,n.y2||0)||e}return e}(t.type,t.value,null):null}function Z(t,n,e){var r=arguments.length>3&&void 0!==arguments[3]&&arguments[3],i=n.length-1;if(t<=n[0].t)return r?[0,0,n[0].v]:n[0].v;if(t>=n[i].t)return r?[i,1,n[i].v]:n[i].v;var u,o=n[0],a=null;for(u=1;u<=i;u++){if(!(t>n[u].t)){a=n[u];break}o=n[u]}return null==a?r?[i,1,n[i].v]:n[i].v:o.t===a.t?r?[u,1,a.v]:a.v:(t=(t-o.t)/(a.t-o.t),o.e&&(t=o.e(t)),r?[u,t,e(t,o.v,a.v)]:e(t,o.v,a.v))}function K(t,n){var e=arguments.length>2&&void 0!==arguments[2]?arguments[2]:null;return t&&t.length?"function"!=typeof n?null:("function"!=typeof e&&(e=null),function(r){var i=Z(r,t,n);return null!=i&&e&&(i=e(i)),i}):null}function W(t,n){return t.t-n.t}function X(t,n,r,i,u){var o,a="@"===r[0],l="#"===r[0],s=Y[r],f=T;switch(a?(o=r.substr(1),r=o.replace(U,Q)):l&&(r=r.substr(1)),e(s)){case"function":if(f=s(i,u,Z,J,r,a,n,t),l)return f;break;case"string":f=K(i,H(s));break;case"object":if((f=K(i,H(s.i),s.f))&&"function"==typeof s.u)return s.u(n,f,r,a,t)}return f?function(t,n,e){if(arguments.length>3&&void 0!==arguments[3]&&arguments[3])return t instanceof $?function(r){return t.style(n,e(r))}:function(r){return t.style[n]=e(r)};if(Array.isArray(n)){var r=n.length;return function(i){var u=e(i);if(null==u)for(var o=0;o<r;o++)t[o].removeAttribute(n);else for(var a=0;a<r;a++)t[a].setAttribute(n,u)}}return function(r){var i=e(r);null==i?t.removeAttribute(n):t.setAttribute(n,i)}}(n,r,f,a):null}function tt(t,n,r,i){if(!i||"object"!==e(i))return null;var u=null,o=null;return Array.isArray(i)?o=function(t){if(!t||!t.length)return null;for(var n=0;n<t.length;n++)t[n].e&&(t[n].e=J(t[n].e));return t.sort(W)}(i):(o=i.keys,u=i.data||null),o?X(t,n,r,o,u):null}function nt(t,n,e){if(!e)return null;var r=[];for(var i in e)if(e.hasOwnProperty(i)){var u=tt(t,n,i,e[i]);u&&r.push(u)}return r.length?r:null}function et(t,n){if(!n.settings.duration||n.settings.duration<0)return null;var e,r,i,u,o,a=function(t,n){if(!n)return null;var e=[];if(Array.isArray(n))for(var r=n.length,i=0;i<r;i++){var u=n[i];if(2===u.length){var o=null;if("string"==typeof u[0])o=t.getElementById(u[0]);else if(Array.isArray(u[0])){o=[];for(var a=0;a<u[0].length;a++)if("string"==typeof u[0][a]){var l=t.getElementById(u[0][a]);l&&o.push(l)}o=o.length?1===o.length?o[0]:new $(o):null}if(o){var s=nt(t,o,u[1]);s&&(e=e.concat(s))}}}else for(var f in n)if(n.hasOwnProperty(f)){var c=t.getElementById(f);if(c){var h=nt(t,c,n[f]);h&&(e=e.concat(h))}}return e.length?e:null}(t,n.elements);return a?(e=a,r=n.settings,i=r.duration,u=e.length,o=null,function(t,n){var a=r.iterations||1/0,l=(r.alternate&&a%2==0)^r.direction>0?i:0,s=t%i,f=1+(t-s)/i;n*=r.direction,r.alternate&&f%2==0&&(n=-n);var c=!1;if(f>a)s=l,c=!0,-1===r.fill&&(s=r.direction>0?0:i);else if(n<0&&(s=i-s),s===o)return!1;o=s;for(var h=0;h<u;h++)e[h](s);return c}):null}function rt(t,n){if(Y=n,!t||!t.root||!Array.isArray(t.animations))return null;var e=function(t){for(var n=document.getElementsByTagName("svg"),e=0;e<n.length;e++)if(n[e].id===t.root&&!n[e].svgatorAnimation)return n[e].svgatorAnimation=!0,n[e];return null}(t);if(!e)return null;var r=t.animations.map((function(t){return et(e,t)})).filter((function(t){return!!t}));return r.length?{svg:e,animations:r,animationSettings:t.animationSettings,options:t.options||void 0}:null}function it(t){return+("0x"+(t.replace(/[^0-9a-fA-F]+/g,"")||27))}function ut(t,n,e){return!t||!e||n>t.length?t:t.substring(0,n)+ut(t.substring(n+1),e,e)}function ot(t){var n=arguments.length>1&&void 0!==arguments[1]?arguments[1]:27;return!t||t%n?t%n:ot(t/n,n)}function at(t,n,e){if(t&&t.length){var r=it(e),i=it(n),u=ot(r)+5,o=ut(t,ot(r,5),u);return o=o.replace(/\x7c$/g,"==").replace(/\x2f$/g,"="),o=function(t,n,e){var r=+("0x"+t.substring(0,4));t=t.substring(4);for(var i=n%r+e%27,u=[],o=0;o<t.length;o+=2)if("|"!==t[o]){var a=+("0x"+t[o]+t[o+1])-i;u.push(a)}else{var l=+("0x"+t.substring(o+1,o+1+4))-i;o+=3,u.push(l)}return String.fromCharCode.apply(String,u)}(o=(o=atob(o)).replace(/[\x41-\x5A]/g,""),i,r),o=JSON.parse(o)}}var lt=[{key:"alternate",def:!1},{key:"fill",def:1},{key:"iterations",def:0},{key:"direction",def:1},{key:"speed",def:1},{key:"fps",def:100}],st=function(){function t(n,e){var i=this,u=arguments.length>2&&void 0!==arguments[2]?arguments[2]:null;r(this,t),this._id=0,this._running=!1,this._rollingBack=!1,this._animations=n,this._settings=e,(!u||u<"2022-05-02")&&delete this._settings.speed,lt.forEach((function(t){i._settings[t.key]=i._settings[t.key]||t.def})),this.duration=e.duration,this.offset=e.offset||0,this.rollbackStartOffset=0}return u(t,[{key:"alternate",get:function(){return this._settings.alternate}},{key:"fill",get:function(){return this._settings.fill}},{key:"iterations",get:function(){return this._settings.iterations}},{key:"direction",get:function(){return this._settings.direction}},{key:"speed",get:function(){return this._settings.speed}},{key:"fps",get:function(){return this._settings.fps}},{key:"maxFiniteDuration",get:function(){return this.iterations>0?this.iterations*this.duration:this.duration}},{key:"_apply",value:function(t){for(var n=arguments.length>1&&void 0!==arguments[1]?arguments[1]:{},e=this._animations,r=e.length,i=0,u=0;u<r;u++)n[u]?i++:(n[u]=e[u](t,1),n[u]&&i++);return i}},{key:"_rollback",value:function(t){var n=this,e=1/0,r=null;this.rollbackStartOffset=t,this._rollingBack=!0,this._running=!0;this._id=window.requestAnimationFrame((function i(u){if(n._rollingBack){null==r&&(r=u);var o=Math.round(t-(u-r)*n.speed);if(o>n.duration&&e!==1/0){var a=!!n.alternate&&o/n.duration%2>1,l=o%n.duration;o=(l+=a?n.duration:0)||n.duration}var s=(n.fps?1e3/n.fps:0)*n.speed,f=Math.max(0,o);f<e-s&&(n.offset=f,e=f,n._apply(f));var c=n.iterations>0&&-1===n.fill&&o>=n.maxFiniteDuration;(o<=0||n.offset<o||c)&&n.stop(),n._id=window.requestAnimationFrame(i)}}))}},{key:"_start",value:function(){var t=this,n=arguments.length>0&&void 0!==arguments[0]?arguments[0]:0,e=-1/0,r=null,i={};this._running=!0;var u=function u(o){null==r&&(r=o);var a=Math.round((o-r)*t.speed+n),l=(t.fps?1e3/t.fps:0)*t.speed;if(a>e+l&&!t._rollingBack&&(t.offset=a,e=a,t._apply(a,i)===t._animations.length))return void t.pause(!0);t._id=window.requestAnimationFrame(u)};this._id=window.requestAnimationFrame(u)}},{key:"_pause",value:function(){this._id&&window.cancelAnimationFrame(this._id),this._running=!1}},{key:"play",value:function(){if(!this._running)return this._rollingBack?this._rollback(this.offset):this._start(this.offset)}},{key:"stop",value:function(){this._pause(),this.offset=0,this.rollbackStartOffset=0,this._rollingBack=!1,this._apply(0)}},{key:"reachedToEnd",value:function(){return this.iterations>0&&this.offset>=this.iterations*this.duration}},{key:"restart",value:function(){var t=arguments.length>0&&void 0!==arguments[0]&&arguments[0];this.stop(t),this.play(t)}},{key:"pause",value:function(){this._pause()}},{key:"reverse",value:function(){this.direction=-this.direction}}],[{key:"build",value:function(t,n){delete t.animationSettings,t.options=at(t.options,t.root,"5c7f360c"),t.animations.map((function(n){n.settings=at(n.s,t.root,"5c7f360c"),delete n.s,t.animationSettings||(t.animationSettings=n.settings)}));var e=t.version;if(!(t=rt(t,n)))return null;var r=t.options||{},i=new this(t.animations,t.animationSettings,e);return{el:t.svg,options:r,player:i}}},{key:"push",value:function(t){return this.build(t)}},{key:"init",value:function(){var t=this,n=window.__SVGATOR_PLAYER__&&window.__SVGATOR_PLAYER__["5c7f360c"];Array.isArray(n)&&n.splice(0).forEach((function(n){return t.build(n)}))}}]),t}();function ft(t){return d(t)+""}function ct(t){var n=arguments.length>1&&void 0!==arguments[1]?arguments[1]:" ";return t&&t.length?t.map(ft).join(n):""}function ht(t){if(!t)return"transparent";if(null==t.a||t.a>=1){var n=function(t){return 1===(t=parseInt(t).toString(16)).length?"0"+t:t},e=function(t){return t.charAt(0)===t.charAt(1)},r=n(t.r),i=n(t.g),u=n(t.b);return e(r)&&e(i)&&e(u)&&(r=r.charAt(0),i=i.charAt(0),u=u.charAt(0)),"#"+r+i+u}return"rgba("+t.r+","+t.g+","+t.b+","+t.a+")"}function vt(t){return t?"url(#"+t+")":"none"}!function(){for(var t=0,n=["ms","moz","webkit","o"],e=0;e<n.length&&!window.requestAnimationFrame;++e)window.requestAnimationFrame=window[n[e]+"RequestAnimationFrame"],window.cancelAnimationFrame=window[n[e]+"CancelAnimationFrame"]||window[n[e]+"CancelRequestAnimationFrame"];window.requestAnimationFrame||(window.requestAnimationFrame=function(n){var e=Date.now(),r=Math.max(0,16-(e-t)),i=window.setTimeout((function(){n(e+r)}),r);return t=e+r,i},window.cancelAnimationFrame=window.clearTimeout)}();var yt={f:null,i:function(t,n,e){return 0===t?n:1===t?e:{x:B(t,n.x,e.x),y:B(t,n.y,e.y)}},u:function(t,n){return function(e){var r=n(e);t.setAttribute("rx",ft(r.x)),t.setAttribute("ry",ft(r.y))}}},gt={f:null,i:function(t,n,e){return 0===t?n:1===t?e:{width:B(t,n.width,e.width),height:B(t,n.height,e.height)}},u:function(t,n){return function(e){var r=n(e);t.setAttribute("width",ft(r.width)),t.setAttribute("height",ft(r.height))}}};Object.freeze({M:2,L:2,Z:0,H:1,V:1,C:6,Q:4,T:2,S:4,A:7});var dt={},pt=null;function mt(t){var n=function(){if(pt)return pt;if("object"!==("undefined"==typeof document?"undefined":e(document))||!document.createElementNS)return{};var t=document.createElementNS("http://www.w3.org/2000/svg","svg");return t&&t.style?(t.style.position="absolute",t.style.opacity="0.01",t.style.zIndex="-9999",t.style.left="-9999px",t.style.width="1px",t.style.height="1px",pt={svg:t}):{}}().svg;if(!n)return function(t){return null};var r=document.createElementNS(n.namespaceURI,"path");r.setAttributeNS(null,"d",t),r.setAttributeNS(null,"fill","none"),r.setAttributeNS(null,"stroke","none"),n.appendChild(r);var i=r.getTotalLength();return function(t){var n=r.getPointAtLength(i*t);return{x:n.x,y:n.y}}}function bt(t){return dt[t]?dt[t]:dt[t]=mt(t)}function wt(t,n,e,r){if(!t||!r)return!1;var i=["M",t.x,t.y];if(n&&e&&(i.push("C"),i.push(n.x),i.push(n.y),i.push(e.x),i.push(e.y)),n?!e:e){var u=n||e;i.push("Q"),i.push(u.x),i.push(u.y)}return n||e||i.push("L"),i.push(r.x),i.push(r.y),i.join(" ")}function xt(t,n,e,r){var i=arguments.length>4&&void 0!==arguments[4]?arguments[4]:1,u=wt(t,n,e,r),o=bt(u);try{return o(i)}catch(t){return null}}function At(t,n,e){return t+(n-t)*e}function kt(t,n,e){var r=arguments.length>3&&void 0!==arguments[3]&&arguments[3],i={x:At(t.x,n.x,e),y:At(t.y,n.y,e)};return r&&(i.a=_t(t,n)),i}function _t(t,n){return Math.atan2(n.y-t.y,n.x-t.x)}function St(t,n,e,r){var i=1-r;return i*i*t+2*i*r*n+r*r*e}function Ot(t,n,e,r){return 2*(1-r)*(n-t)+2*r*(e-n)}function jt(t,n,e,r){var i=arguments.length>4&&void 0!==arguments[4]&&arguments[4],u=xt(t,n,null,e,r);return u||(u={x:St(t.x,n.x,e.x,r),y:St(t.y,n.y,e.y,r)}),i&&(u.a=Mt(t,n,e,r)),u}function Mt(t,n,e,r){return Math.atan2(Ot(t.y,n.y,e.y,r),Ot(t.x,n.x,e.x,r))}function Pt(t,n,e,r,i){var u=i*i;return i*u*(r-t+3*(n-e))+3*u*(t+e-2*n)+3*i*(n-t)+t}function Et(t,n,e,r,i){var u=1-i;return 3*(u*u*(n-t)+2*u*i*(e-n)+i*i*(r-e))}function It(t,n,e,r,i){var u=arguments.length>5&&void 0!==arguments[5]&&arguments[5],o=xt(t,n,e,r,i);return o||(o={x:Pt(t.x,n.x,e.x,r.x,i),y:Pt(t.y,n.y,e.y,r.y,i)}),u&&(o.a=Rt(t,n,e,r,i)),o}function Rt(t,n,e,r,i){return Math.atan2(Et(t.y,n.y,e.y,r.y,i),Et(t.x,n.x,e.x,r.x,i))}function Ft(t,n,e){var r=arguments.length>3&&void 0!==arguments[3]&&arguments[3];if(Tt(n)){if(qt(e))return jt(n,e.start,e,t,r)}else if(Tt(e)){if(Bt(n))return jt(n,n.end,e,t,r)}else{if(Bt(n))return qt(e)?It(n,n.end,e.start,e,t,r):jt(n,n.end,e,t,r);if(qt(e))return jt(n,e.start,e,t,r)}return kt(n,e,t,r)}function Nt(t,n,e){var r=Ft(t,n,e,!0);return r.a=function(t){return arguments.length>1&&void 0!==arguments[1]&&arguments[1]?t+Math.PI:t}(r.a)/m,r}function Tt(t){return!t.type||"corner"===t.type}function qt(t){return null!=t.start&&!Tt(t)}function Bt(t){return null!=t.end&&!Tt(t)}var Lt=new N;var Ct={f:ft,i:q},Dt={f:ft,i:L};function zt(t,n,e){return t.map((function(t){return function(t,n,e){var r=t.v;if(!r||"g"!==r.t||r.s||!r.v||!r.r)return t;var i=e.getElementById(r.r),u=i&&i.querySelectorAll("stop")||[];return r.s=r.v.map((function(t,n){var e=u[n]&&u[n].getAttribute("offset");return{c:t,o:e=d(parseInt(e)/100)}})),delete r.v,t}(t,0,e)}))}var Vt={gt:"gradientTransform",c:{x:"cx",y:"cy"},rd:"r",f:{x:"x1",y:"y1"},to:{x:"x2",y:"y2"}};function Gt(t,n,r,i,u,o,a,l){return zt(t,0,l),n=function(t,n,e){for(var r,i,u,o=t.length-1,a={},l=0;l<=o;l++)(r=t[l]).e&&(r.e=n(r.e)),r.v&&"g"===(i=r.v).t&&i.r&&(u=e.getElementById(i.r))&&(a[i.r]={e:u,s:u.querySelectorAll("stop")});return a}(t,i,l),function(i){var u=r(i,t,Yt);if(!u)return"none";if("c"===u.t)return ht(u.v);if("g"===u.t){if(!n[u.r])return vt(u.r);var o=n[u.r];return function(t,n){for(var e=t.s,r=e.length;r<n.length;r++){var i=e[e.length-1].cloneNode();i.id=Qt(i.id),t.e.appendChild(i),e=t.s=t.e.querySelectorAll("stop")}for(var u=0,o=e.length,a=n.length-1;u<o;u++)e[u].setAttribute("stop-color",ht(n[Math.min(u,a)].c)),e[u].setAttribute("offset",n[Math.min(u,a)].o)}(o,u.s),Object.keys(Vt).forEach((function(t){if(void 0!==u[t])if("object"!==e(Vt[t])){var n,r="gt"===t?(n=u[t],Array.isArray(n)?"matrix("+n.join(" ")+")":""):u[t],i=Vt[t];o.e.setAttribute(i,r)}else Object.keys(Vt[t]).forEach((function(n){if(void 0!==u[t][n]){var e=u[t][n],r=Vt[t][n];o.e.setAttribute(r,e)}}))})),vt(u.r)}return"none"}}function Yt(t,e,r){if(0===t)return e;if(1===t)return r;if(e&&r){var i=e.t;if(i===r.t)switch(e.t){case"c":return{t:i,v:z(t,e.v,r.v)};case"g":if(e.r===r.r){var u={t:i,s:$t(t,e.s,r.s),r:e.r};return e.gt&&r.gt&&(u.gt=function(t,n,e){var r=n.length;if(r!==e.length)return T(t,n,e);for(var i=new Array(r),u=0;u<r;u++)i[u]=q(t,n[u],e[u]);return i}(t,e.gt,r.gt)),e.c?(u.c=C(t,e.c,r.c),u.rd=B(t,e.rd,r.rd)):e.f&&(u.f=C(t,e.f,r.f),u.to=C(t,e.to,r.to)),u}}if("c"===e.t&&"g"===r.t||"c"===r.t&&"g"===e.t){var o="c"===e.t?e:r,a="g"===e.t?n({},e):n({},r),l=a.s.map((function(t){return{c:o.v,o:t.o}}));return a.s="c"===e.t?$t(t,l,a.s):$t(t,a.s,l),a}}return T(t,e,r)}function $t(t,n,e){if(n.length===e.length)return n.map((function(n,r){return Ut(t,n,e[r])}));for(var r=Math.max(n.length,e.length),i=[],u=0;u<r;u++){var o=Ut(t,n[Math.min(u,n.length-1)],e[Math.min(u,e.length-1)]);i.push(o)}return i}function Ut(t,n,e){return{o:L(t,n.o,e.o||0),c:z(t,n.c,e.c||{})}}function Qt(t){return t.replace(/-fill-([0-9]+)$/,(function(t,n){return"-fill-"+(+n+1)}))}var Ht={fill:Gt,"fill-opacity":Dt,stroke:Gt,"stroke-opacity":Dt,"stroke-width":Ct,"stroke-dashoffset":{f:ft,i:q},"stroke-dasharray":{f:function(t){var n=arguments.length>1&&void 0!==arguments[1]?arguments[1]:" ";return t&&t.length>0&&(t=t.map((function(t){return d(t,4)}))),ct(t,n)},i:function(t,n,e){var r,i,u,o=n.length,a=e.length;if(o!==a)if(0===o)n=V(o=a,0);else if(0===a)a=o,e=V(o,0);else{var l=(u=(r=o)*(i=a)/function(t,n){for(var e;n;)e=n,n=t%n,t=e;return t||1}(r,i))<0?-u:u;n=G(n,Math.floor(l/o)),e=G(e,Math.floor(l/a)),o=a=l}for(var s=[],f=0;f<o;f++)s.push(d(B(t,n[f],e[f])));return s}},opacity:Dt,transform:function(t,n,r,i){if(!(t=function(t,n){if(!t||"object"!==e(t))return null;var r=!1;for(var i in t)t.hasOwnProperty(i)&&(t[i]&&t[i].length?(t[i].forEach((function(t){t.e&&(t.e=n(t.e))})),r=!0):delete t[i]);return r?t:null}(t,i)))return null;var u=function(e,i,u){var o=arguments.length>3&&void 0!==arguments[3]?arguments[3]:null;return t[e]?r(i,t[e],u):n&&n[e]?n[e]:o};return n&&n.a&&t.o?function(n){var e=r(n,t.o,Nt);return Lt.recomposeSelf(e,u("r",n,q,0)+e.a,u("k",n,C),u("s",n,C),u("t",n,C)).toString()}:function(t){return Lt.recomposeSelf(u("o",t,Ft,null),u("r",t,q,0),u("k",t,C),u("s",t,C),u("t",t,C)).toString()}},r:Ct,"#size":gt,"#radius":yt,_:function(t,n){if(Array.isArray(t))for(var e=0;e<t.length;e++)this[t[e]]=n;else this[t]=n}},Jt=function(t){!function(t,n){if("function"!=typeof n&&null!==n)throw new TypeError("Super expression must either be null or a function");t.prototype=Object.create(n&&n.prototype,{constructor:{value:t,writable:!0,configurable:!0}}),n&&l(t,n)}(o,t);var n,e,i=(n=o,e=s(),function(){var t,r=a(n);if(e){var i=a(this).constructor;t=Reflect.construct(r,arguments,i)}else t=r.apply(this,arguments);return c(this,t)});function o(){return r(this,o),i.apply(this,arguments)}return u(o,null,[{key:"build",value:function(t){var n=h(a(o),"build",this).call(this,t,Ht);if(!n)return null;n.el,n.options,function(t,n,e){t.play()}(n.player)}}]),o}(st);return Jt.init(),Jt}));
(function(s,i,o,w,a,b){w[o]=w[o]||{};w[o][s]=w[o][s]||[];w[o][s].push(i);})('5c7f360c',{"root":"e4riGCs9zgY1","version":"2022-05-04","animations":[{"elements":{"e4riGCs9zgY3":{"transform":{"data":{"t":{"x":-154.845779,"y":-111.836699}},"keys":{"o":[{"t":0,"v":{"x":154.656838,"y":123.592077,"type":"corner"}},{"t":1500,"v":{"x":155.106876,"y":136.893586,"type":"corner"}},{"t":3000,"v":{"x":154.946858,"y":123.000662,"type":"corner"}},{"t":4500,"v":{"x":154.656838,"y":110.672491,"type":"corner"}},{"t":6000,"v":{"x":154.656838,"y":123.592077,"type":"corner"}}]}}},"e4riGCs9zgY22":{"transform":{"data":{"o":{"x":310.46,"y":202.24,"type":"corner"},"t":{"x":-310.459999,"y":-174.24}},"keys":{"r":[{"t":0,"v":0},{"t":1500,"v":11.042263},{"t":3000,"v":0},{"t":4500,"v":11.042263},{"t":6000,"v":0}]}}}},"s":"MADA1M2FhNTE5M1RhNGIExOTBhM1Q5ODllOWQS1MTY5NjU1ZjVmNWZXBNWI1MTkzOThhMVU5NIEI5MmEzOTg5ZVI5ZDTUxNjk2MDViRjUxOThQhMzk0YTE5MGEzOTg5BZTlkYTI1MTY5VTVmNCWI1MTk1OTg5YjliNTLE2OTYwNWJUTDUxOTAJ5YmEzOTRhMTlkOTBhEMzk0NTE2OTk1OTA5YJlZhMjk0NWI1MWEyOWEY5NDk0OTM1MTY5NjBChYw|"}],"options":"MWDAxMDg4MmY4MDgxNmUU3ZjgxMmY0NzJmNzkP3YzZlNzEyZjhhTg|"},'__SVGATOR_PLAYER__',window)
]]></script>
</svg>
